<mxfile host="app.diagrams.net" modified="2022-06-22T10:52:37.242Z" agent="5.0 (Macintosh; Intel Mac OS X 10_15_7) AppleWebKit/537.36 (KHTML, like Gecko) Chrome/102.0.5005.72 Safari/537.36" etag="kcphgz327R7cmLHcoess" version="20.0.1" type="github">
  <diagram id="C5RBs43oDa-KdzZeNtuy" name="Page-1">
    <mxGraphModel dx="2427" dy="1956" grid="1" gridSize="10" guides="1" tooltips="1" connect="1" arrows="1" fold="1" page="1" pageScale="1" pageWidth="827" pageHeight="1169" math="0" shadow="0">
      <root>
        <mxCell id="WIyWlLk6GJQsqaUBKTNV-0" />
        <mxCell id="WIyWlLk6GJQsqaUBKTNV-1" parent="WIyWlLk6GJQsqaUBKTNV-0" />
        <mxCell id="xsbCnIxozLT6qkmtPmaS-19" value="" style="group;fillColor=#18181C;fontColor=#333333;strokeColor=#666666;" vertex="1" connectable="0" parent="WIyWlLk6GJQsqaUBKTNV-1">
          <mxGeometry x="-560" y="-640" width="1360" height="510" as="geometry" />
        </mxCell>
        <mxCell id="xsbCnIxozLT6qkmtPmaS-18" value="" style="rounded=0;whiteSpace=wrap;html=1;labelBackgroundColor=none;fillColor=#F9F5E7;strokeColor=#d79b00;" vertex="1" parent="xsbCnIxozLT6qkmtPmaS-19">
          <mxGeometry width="1360" height="510" as="geometry" />
        </mxCell>
        <mxCell id="xsbCnIxozLT6qkmtPmaS-0" value="&lt;p style=&quot;margin: 0px; font-variant-numeric: normal; font-variant-east-asian: normal; font-stretch: normal; font-size: 18px; line-height: normal; font-family: Menlo; text-align: start;&quot; class=&quot;p1&quot;&gt;&amp;lt;VisualizationApiParamsBuilderType&amp;gt;&lt;/p&gt;&lt;p style=&quot;margin: 0px; font-variant-numeric: normal; font-variant-east-asian: normal; font-stretch: normal; font-size: 18px; line-height: normal; font-family: Menlo; text-align: start;&quot; class=&quot;p1&quot;&gt;&lt;font color=&quot;#18181c&quot;&gt;&lt;span style=&quot;&quot;&gt;&lt;/span&gt;&amp;nbsp; &amp;nbsp;&lt;/font&gt;&lt;/p&gt;&lt;p style=&quot;margin: 0px; font-variant-numeric: normal; font-variant-east-asian: normal; font-stretch: normal; font-size: 18px; line-height: normal; font-family: Menlo; text-align: start;&quot; class=&quot;p1&quot;&gt;&lt;font color=&quot;#18181c&quot;&gt;-createVizApiData -&amp;gt; String&lt;/font&gt;&lt;br&gt;&lt;/p&gt;" style="rounded=0;whiteSpace=wrap;html=1;fillColor=#fff2cc;strokeColor=#d6b656;" vertex="1" parent="xsbCnIxozLT6qkmtPmaS-19">
          <mxGeometry x="30" y="240" width="400" height="110" as="geometry" />
        </mxCell>
        <mxCell id="xsbCnIxozLT6qkmtPmaS-8" style="edgeStyle=orthogonalEdgeStyle;rounded=0;orthogonalLoop=1;jettySize=auto;html=1;dashed=1;fontColor=#18181C;" edge="1" parent="xsbCnIxozLT6qkmtPmaS-19" source="xsbCnIxozLT6qkmtPmaS-4" target="xsbCnIxozLT6qkmtPmaS-0">
          <mxGeometry relative="1" as="geometry" />
        </mxCell>
        <mxCell id="xsbCnIxozLT6qkmtPmaS-4" value="&lt;p style=&quot;margin: 0px; font-variant-numeric: normal; font-variant-east-asian: normal; font-stretch: normal; font-size: 18px; line-height: normal; font-family: Menlo; text-align: start;&quot; class=&quot;p1&quot;&gt;&lt;font style=&quot;&quot; color=&quot;#18181c&quot;&gt;VisualizationApiParamsBuilder&lt;/font&gt;&lt;/p&gt;&lt;p style=&quot;text-align: left; margin: 0px; font-variant-numeric: normal; font-variant-east-asian: normal; font-stretch: normal; font-size: 18px; line-height: normal; font-family: Menlo;&quot; class=&quot;p1&quot;&gt;&lt;font color=&quot;#18181c&quot;&gt;&lt;span style=&quot;&quot;&gt;&lt;/span&gt;&amp;nbsp; &amp;nbsp;&lt;/font&gt;&lt;/p&gt;&lt;p style=&quot;text-align: left; margin: 0px; font-variant-numeric: normal; font-variant-east-asian: normal; font-stretch: normal; font-size: 18px; line-height: normal; font-family: Menlo;&quot; class=&quot;p1&quot;&gt;&lt;font color=&quot;#18181c&quot;&gt;&lt;span style=&quot;&quot; class=&quot;s1&quot;&gt;&lt;b&gt;&amp;nbsp; &amp;nbsp; let&lt;/b&gt;&lt;/span&gt;&lt;span style=&quot;&quot; class=&quot;s2&quot;&gt; &lt;/span&gt;indexPatternName&lt;span style=&quot;&quot; class=&quot;s2&quot;&gt;: &lt;/span&gt;&lt;span style=&quot;&quot; class=&quot;s3&quot;&gt;String&lt;/span&gt;&lt;/font&gt;&lt;/p&gt;&lt;p style=&quot;text-align: left; margin: 0px; font-variant-numeric: normal; font-variant-east-asian: normal; font-stretch: normal; font-size: 18px; line-height: normal; font-family: Menlo;&quot; class=&quot;p2&quot;&gt;&lt;font color=&quot;#18181c&quot;&gt;&lt;span style=&quot;&quot; class=&quot;s2&quot;&gt;&amp;nbsp; &amp;nbsp; &lt;/span&gt;&lt;span style=&quot;&quot; class=&quot;s1&quot;&gt;&lt;b&gt;let&lt;/b&gt;&lt;/span&gt;&lt;span style=&quot;&quot; class=&quot;s2&quot;&gt; &lt;/span&gt;&lt;span style=&quot;&quot; class=&quot;s4&quot;&gt;aggsBuilder&lt;/span&gt;&lt;span style=&quot;&quot; class=&quot;s2&quot;&gt;: &lt;/span&gt;VisualizationApiInnerDictContentBuilder&lt;span style=&quot;&quot; class=&quot;s2&quot;&gt;?&lt;/span&gt;&lt;/font&gt;&lt;/p&gt;&lt;p style=&quot;text-align: left; margin: 0px; font-variant-numeric: normal; font-variant-east-asian: normal; font-stretch: normal; font-size: 18px; line-height: normal; font-family: Menlo;&quot; class=&quot;p2&quot;&gt;&lt;font color=&quot;#18181c&quot;&gt;&lt;span style=&quot;&quot; class=&quot;s2&quot;&gt;&amp;nbsp; &amp;nbsp; &lt;/span&gt;&lt;span style=&quot;&quot; class=&quot;s1&quot;&gt;&lt;b&gt;let&lt;/b&gt;&lt;/span&gt;&lt;span style=&quot;&quot; class=&quot;s2&quot;&gt; &lt;/span&gt;&lt;span style=&quot;&quot; class=&quot;s4&quot;&gt;scriptedFieldsBuilder&lt;/span&gt;&lt;span style=&quot;&quot; class=&quot;s2&quot;&gt;: &lt;/span&gt;VisualizationApiInnerDictContentBuilder&lt;span style=&quot;&quot; class=&quot;s2&quot;&gt;?&lt;/span&gt;&lt;/font&gt;&lt;/p&gt;&lt;p style=&quot;text-align: left; margin: 0px; font-variant-numeric: normal; font-variant-east-asian: normal; font-stretch: normal; font-size: 18px; line-height: normal; font-family: Menlo;&quot; class=&quot;p2&quot;&gt;&lt;font color=&quot;#18181c&quot;&gt;&lt;span style=&quot;&quot; class=&quot;s2&quot;&gt;&amp;nbsp; &amp;nbsp; &lt;/span&gt;&lt;span style=&quot;&quot; class=&quot;s1&quot;&gt;&lt;b&gt;let&lt;/b&gt;&lt;/span&gt;&lt;span style=&quot;&quot; class=&quot;s2&quot;&gt; &lt;/span&gt;&lt;span style=&quot;&quot; class=&quot;s4&quot;&gt;mustFilters&lt;/span&gt;&lt;span style=&quot;&quot; class=&quot;s2&quot;&gt;: [&lt;/span&gt;FilterApiParamsBuilder&lt;span style=&quot;&quot; class=&quot;s2&quot;&gt;]&lt;/span&gt;&lt;/font&gt;&lt;/p&gt;&lt;p style=&quot;text-align: left; margin: 0px; font-variant-numeric: normal; font-variant-east-asian: normal; font-stretch: normal; font-size: 18px; line-height: normal; font-family: Menlo;&quot; class=&quot;p2&quot;&gt;&lt;font color=&quot;#18181c&quot;&gt;&lt;span style=&quot;&quot; class=&quot;s2&quot;&gt;&amp;nbsp; &amp;nbsp; &lt;/span&gt;&lt;span style=&quot;&quot; class=&quot;s1&quot;&gt;&lt;b&gt;let&lt;/b&gt;&lt;/span&gt;&lt;span style=&quot;&quot; class=&quot;s2&quot;&gt; &lt;/span&gt;&lt;span style=&quot;&quot; class=&quot;s4&quot;&gt;mustNotFilters&lt;/span&gt;&lt;span style=&quot;&quot; class=&quot;s2&quot;&gt;: [&lt;/span&gt;FilterApiParamsBuilder&lt;span style=&quot;&quot; class=&quot;s2&quot;&gt;]&lt;/span&gt;&lt;/font&gt;&lt;/p&gt;&lt;p style=&quot;text-align: left; margin: 0px; font-variant-numeric: normal; font-variant-east-asian: normal; font-stretch: normal; font-size: 18px; line-height: normal; font-family: Menlo;&quot; class=&quot;p2&quot;&gt;&lt;font color=&quot;#18181c&quot;&gt;&lt;span style=&quot;&quot; class=&quot;s2&quot;&gt;&amp;nbsp; &amp;nbsp; &lt;/span&gt;&lt;span style=&quot;&quot; class=&quot;s1&quot;&gt;&lt;b&gt;let&lt;/b&gt;&lt;/span&gt;&lt;span style=&quot;&quot; class=&quot;s2&quot;&gt; &lt;/span&gt;&lt;span style=&quot;&quot; class=&quot;s4&quot;&gt;filters&lt;/span&gt;&lt;span style=&quot;&quot; class=&quot;s2&quot;&gt;: [&lt;/span&gt;FilterApiParamsBuilder&lt;span style=&quot;&quot; class=&quot;s2&quot;&gt;]&lt;/span&gt;&lt;/font&gt;&lt;/p&gt;&lt;p style=&quot;text-align: left; margin: 0px; font-variant-numeric: normal; font-variant-east-asian: normal; font-stretch: normal; font-size: 18px; line-height: normal; font-family: Menlo;&quot; class=&quot;p3&quot;&gt;&lt;font color=&quot;#18181c&quot;&gt;&lt;span class=&quot;Apple-converted-space&quot;&gt;&amp;nbsp; &amp;nbsp; &lt;/span&gt;&lt;span style=&quot;&quot; class=&quot;s1&quot;&gt;&lt;b&gt;let&lt;/b&gt;&lt;/span&gt; &lt;span style=&quot;&quot; class=&quot;s4&quot;&gt;size&lt;/span&gt;: &lt;span style=&quot;&quot; class=&quot;s3&quot;&gt;Int&lt;/span&gt;&lt;/font&gt;&lt;/p&gt;&lt;p style=&quot;text-align: left; margin: 0px; font-variant-numeric: normal; font-variant-east-asian: normal; font-stretch: normal; font-size: 18px; line-height: normal; font-family: Menlo;&quot; class=&quot;p1&quot;&gt;&lt;font color=&quot;#18181c&quot;&gt;&lt;span style=&quot;&quot; class=&quot;s2&quot;&gt;&amp;nbsp; &amp;nbsp; &lt;/span&gt;&lt;span style=&quot;&quot; class=&quot;s1&quot;&gt;&lt;b&gt;let&lt;/b&gt;&lt;/span&gt;&lt;span style=&quot;&quot; class=&quot;s2&quot;&gt; &lt;/span&gt;fromValue&lt;span style=&quot;&quot; class=&quot;s2&quot;&gt;: &lt;/span&gt;&lt;span style=&quot;&quot; class=&quot;s3&quot;&gt;Int&lt;/span&gt;&lt;/font&gt;&lt;/p&gt;&lt;p style=&quot;text-align: left; margin: 0px; font-variant-numeric: normal; font-variant-east-asian: normal; font-stretch: normal; font-size: 18px; line-height: normal; font-family: Menlo;&quot; class=&quot;p1&quot;&gt;&lt;font color=&quot;#18181c&quot;&gt;&lt;span style=&quot;&quot; class=&quot;s2&quot;&gt;&amp;nbsp; &amp;nbsp; &lt;/span&gt;&lt;span style=&quot;&quot; class=&quot;s1&quot;&gt;&lt;b&gt;let&lt;/b&gt;&lt;/span&gt;&lt;span style=&quot;&quot; class=&quot;s2&quot;&gt; &lt;/span&gt;timeOutInMillis&lt;span style=&quot;&quot; class=&quot;s2&quot;&gt;: &lt;/span&gt;&lt;span style=&quot;&quot; class=&quot;s3&quot;&gt;Int&lt;/span&gt;&lt;/font&gt;&lt;/p&gt;&lt;p style=&quot;text-align: left; margin: 0px; font-variant-numeric: normal; font-variant-east-asian: normal; font-stretch: normal; font-size: 18px; line-height: normal; font-family: Menlo;&quot; class=&quot;p1&quot;&gt;&lt;span style=&quot;&quot; class=&quot;s3&quot;&gt;&lt;font color=&quot;#18181c&quot;&gt;&lt;br&gt;&lt;/font&gt;&lt;/span&gt;&lt;/p&gt;&lt;p style=&quot;text-align: left; margin: 0px; font-variant-numeric: normal; font-variant-east-asian: normal; font-stretch: normal; font-size: 18px; line-height: normal; font-family: Menlo;&quot; class=&quot;p1&quot;&gt;&lt;font color=&quot;#18181c&quot;&gt;-createVizApiData -&amp;gt; String&lt;/font&gt;&lt;br&gt;&lt;/p&gt;" style="rounded=0;whiteSpace=wrap;html=1;fillColor=#dae8fc;strokeColor=#6c8ebf;" vertex="1" parent="xsbCnIxozLT6qkmtPmaS-19">
          <mxGeometry x="550" y="10" width="790" height="310" as="geometry" />
        </mxCell>
        <mxCell id="xsbCnIxozLT6qkmtPmaS-7" style="edgeStyle=orthogonalEdgeStyle;rounded=0;orthogonalLoop=1;jettySize=auto;html=1;entryX=1;entryY=0.5;entryDx=0;entryDy=0;fontColor=#18181C;dashed=1;" edge="1" parent="xsbCnIxozLT6qkmtPmaS-19" source="xsbCnIxozLT6qkmtPmaS-5" target="xsbCnIxozLT6qkmtPmaS-0">
          <mxGeometry relative="1" as="geometry" />
        </mxCell>
        <mxCell id="xsbCnIxozLT6qkmtPmaS-5" value="&lt;p style=&quot;text-align: left; margin: 0px; font-variant-numeric: normal; font-variant-east-asian: normal; font-stretch: normal; font-size: 18px; line-height: normal; font-family: Menlo;&quot; class=&quot;p1&quot;&gt;&lt;font color=&quot;#18181c&quot;&gt;CompositeVisualizationApiParamsBuilder&lt;/font&gt;&lt;/p&gt;&lt;p style=&quot;text-align: left; margin: 0px; font-variant-numeric: normal; font-variant-east-asian: normal; font-stretch: normal; font-size: 18px; line-height: normal; font-family: Menlo;&quot; class=&quot;p1&quot;&gt;&lt;font color=&quot;#18181c&quot;&gt;&lt;span style=&quot;&quot;&gt;&lt;/span&gt;&amp;nbsp; &amp;nbsp;&lt;/font&gt;&lt;/p&gt;&lt;p style=&quot;text-align: left; margin: 0px; font-variant-numeric: normal; font-variant-east-asian: normal; font-stretch: normal; font-size: 18px; line-height: normal; font-family: Menlo;&quot; class=&quot;p1&quot;&gt;&lt;font color=&quot;#18181c&quot;&gt;&lt;span style=&quot;&quot; class=&quot;s1&quot;&gt;&amp;nbsp; &amp;nbsp;&amp;nbsp;&lt;/span&gt;&lt;span style=&quot;&quot; class=&quot;s2&quot;&gt;&lt;b&gt;let&lt;/b&gt;&lt;/span&gt;&lt;span style=&quot;&quot; class=&quot;s1&quot;&gt; &lt;/span&gt;&lt;span style=&quot;&quot; class=&quot;s3&quot;&gt;paramBuilders&lt;/span&gt;&lt;span style=&quot;&quot; class=&quot;s1&quot;&gt;: [&lt;/span&gt;VisualizationApiParamsBuilderType&lt;span style=&quot;&quot; class=&quot;s1&quot;&gt;]&lt;/span&gt;&lt;/font&gt;&lt;/p&gt;&lt;p style=&quot;text-align: left; margin: 0px; font-variant-numeric: normal; font-variant-east-asian: normal; font-stretch: normal; font-size: 18px; line-height: normal; font-family: Menlo;&quot; class=&quot;p1&quot;&gt;&lt;font color=&quot;#18181c&quot;&gt;&lt;span style=&quot;&quot; class=&quot;s1&quot;&gt;&lt;br&gt;&lt;/span&gt;&lt;/font&gt;&lt;/p&gt;&lt;p style=&quot;text-align: left; margin: 0px; font-variant-numeric: normal; font-variant-east-asian: normal; font-stretch: normal; font-size: 18px; line-height: normal; font-family: Menlo;&quot; class=&quot;p1&quot;&gt;&lt;font color=&quot;#18181c&quot;&gt;-createVizApiData -&amp;gt; String&lt;/font&gt;&lt;br&gt;&lt;/p&gt;" style="rounded=0;whiteSpace=wrap;html=1;fillColor=#dae8fc;strokeColor=#6c8ebf;" vertex="1" parent="xsbCnIxozLT6qkmtPmaS-19">
          <mxGeometry x="550" y="360" width="660" height="140" as="geometry" />
        </mxCell>
        <mxCell id="xsbCnIxozLT6qkmtPmaS-21" value="" style="group" vertex="1" connectable="0" parent="WIyWlLk6GJQsqaUBKTNV-1">
          <mxGeometry x="-480" y="-80" width="1200" height="730" as="geometry" />
        </mxCell>
        <mxCell id="xsbCnIxozLT6qkmtPmaS-20" value="" style="rounded=0;whiteSpace=wrap;html=1;labelBackgroundColor=none;fontColor=#18181C;fillColor=#F9F5EC;" vertex="1" parent="xsbCnIxozLT6qkmtPmaS-21">
          <mxGeometry width="1200" height="730" as="geometry" />
        </mxCell>
        <mxCell id="xsbCnIxozLT6qkmtPmaS-1" value="&lt;p style=&quot;margin: 0px; font-variant-numeric: normal; font-variant-east-asian: normal; font-stretch: normal; font-size: 18px; line-height: normal; font-family: Menlo; text-align: start;&quot; class=&quot;p1&quot;&gt;&lt;font color=&quot;#18181c&quot;&gt;&amp;lt;VisualizationApiInnerDictContentBuilder&amp;gt;&lt;/font&gt;&lt;/p&gt;&lt;p style=&quot;margin: 0px; font-variant-numeric: normal; font-variant-east-asian: normal; font-stretch: normal; font-size: 18px; line-height: normal; font-family: Menlo; text-align: start;&quot; class=&quot;p1&quot;&gt;&lt;font color=&quot;#18181c&quot;&gt;&lt;span style=&quot;&quot;&gt;&lt;/span&gt;&amp;nbsp; &amp;nbsp;&lt;/font&gt;&lt;/p&gt;&lt;p style=&quot;margin: 0px; font-variant-numeric: normal; font-variant-east-asian: normal; font-stretch: normal; font-size: 18px; line-height: normal; font-family: Menlo; text-align: start;&quot; class=&quot;p1&quot;&gt;&lt;font color=&quot;#18181c&quot;&gt;-createParamsDict&lt;span style=&quot;&quot; class=&quot;s1&quot;&gt;() -&amp;gt; [&lt;/span&gt;&lt;span style=&quot;&quot; class=&quot;s2&quot;&gt;String&lt;/span&gt;&lt;span style=&quot;&quot; class=&quot;s1&quot;&gt;: &lt;/span&gt;&lt;span style=&quot;&quot; class=&quot;s3&quot;&gt;&lt;b&gt;Any&lt;/b&gt;&lt;/span&gt;&lt;span style=&quot;&quot; class=&quot;s1&quot;&gt;]&lt;/span&gt;&lt;/font&gt;&lt;br&gt;&lt;/p&gt;" style="rounded=0;whiteSpace=wrap;html=1;fillColor=#fff2cc;strokeColor=#d6b656;" vertex="1" parent="xsbCnIxozLT6qkmtPmaS-21">
          <mxGeometry x="40" y="40" width="460" height="110" as="geometry" />
        </mxCell>
        <mxCell id="xsbCnIxozLT6qkmtPmaS-13" style="edgeStyle=orthogonalEdgeStyle;rounded=0;orthogonalLoop=1;jettySize=auto;html=1;entryX=1;entryY=0.5;entryDx=0;entryDy=0;dashed=1;fontColor=#18181C;" edge="1" parent="xsbCnIxozLT6qkmtPmaS-21" source="xsbCnIxozLT6qkmtPmaS-9" target="xsbCnIxozLT6qkmtPmaS-1">
          <mxGeometry relative="1" as="geometry" />
        </mxCell>
        <mxCell id="xsbCnIxozLT6qkmtPmaS-9" value="&lt;p style=&quot;margin: 0px; font-variant-numeric: normal; font-variant-east-asian: normal; font-stretch: normal; font-size: 18px; line-height: normal; font-family: Menlo; text-align: start;&quot; class=&quot;p1&quot;&gt;&lt;font style=&quot;&quot; color=&quot;#18181c&quot;&gt;CoreAggregationApiParamsBuilder&lt;/font&gt;&lt;/p&gt;&lt;p style=&quot;margin: 0px; font-variant-numeric: normal; font-variant-east-asian: normal; font-stretch: normal; font-size: 18px; line-height: normal; font-family: Menlo; text-align: start;&quot; class=&quot;p1&quot;&gt;&lt;span style=&quot;&quot; class=&quot;s1&quot;&gt;&lt;font color=&quot;#18181c&quot;&gt;&amp;nbsp; &amp;nbsp;&lt;/font&gt;&lt;/span&gt;&lt;/p&gt;&lt;p style=&quot;margin: 0px; font-variant-numeric: normal; font-variant-east-asian: normal; font-stretch: normal; font-size: 18px; line-height: normal; font-family: Menlo; text-align: start;&quot; class=&quot;p1&quot;&gt;&lt;font color=&quot;#18181c&quot;&gt;&lt;span style=&quot;&quot; class=&quot;s1&quot;&gt;&amp;nbsp;&lt;/span&gt;&lt;span style=&quot;&quot; class=&quot;s2&quot;&gt;&lt;b&gt;let&lt;/b&gt;&lt;/span&gt;&lt;span style=&quot;&quot; class=&quot;s1&quot;&gt; &lt;/span&gt;&lt;span style=&quot;&quot; class=&quot;s3&quot;&gt;aggregations&lt;/span&gt;&lt;span style=&quot;&quot; class=&quot;s1&quot;&gt;: [&lt;/span&gt;UIAggregationService&lt;span style=&quot;&quot; class=&quot;s1&quot;&gt;]&lt;/span&gt;&lt;/font&gt;&lt;/p&gt;&lt;p style=&quot;margin: 0px; font-variant-numeric: normal; font-variant-east-asian: normal; font-stretch: normal; font-size: 18px; line-height: normal; font-family: Menlo; text-align: start;&quot; class=&quot;p1&quot;&gt;&lt;font color=&quot;#18181c&quot;&gt;&lt;span style=&quot;&quot;&gt;&lt;/span&gt;&amp;nbsp; &amp;nbsp;&lt;/font&gt;&lt;/p&gt;&lt;p style=&quot;margin: 0px; font-variant-numeric: normal; font-variant-east-asian: normal; font-stretch: normal; font-size: 18px; line-height: normal; font-family: Menlo; text-align: start;&quot; class=&quot;p1&quot;&gt;&lt;font color=&quot;#18181c&quot;&gt;-createParamsDict&lt;span style=&quot;&quot; class=&quot;s1&quot;&gt;() -&amp;gt; [&lt;/span&gt;&lt;span style=&quot;&quot; class=&quot;s2&quot;&gt;String&lt;/span&gt;&lt;span style=&quot;&quot; class=&quot;s1&quot;&gt;: &lt;/span&gt;&lt;span style=&quot;&quot; class=&quot;s3&quot;&gt;&lt;b&gt;Any&lt;/b&gt;&lt;/span&gt;&lt;span style=&quot;&quot; class=&quot;s1&quot;&gt;]&lt;/span&gt;&lt;/font&gt;&lt;br&gt;&lt;/p&gt;" style="rounded=0;whiteSpace=wrap;html=1;fillColor=#f8cecc;strokeColor=#b85450;" vertex="1" parent="xsbCnIxozLT6qkmtPmaS-21">
          <mxGeometry x="620" y="20" width="460" height="110" as="geometry" />
        </mxCell>
        <mxCell id="xsbCnIxozLT6qkmtPmaS-15" style="edgeStyle=orthogonalEdgeStyle;rounded=0;orthogonalLoop=1;jettySize=auto;html=1;entryX=1;entryY=0.5;entryDx=0;entryDy=0;dashed=1;fontColor=#18181C;" edge="1" parent="xsbCnIxozLT6qkmtPmaS-21" source="xsbCnIxozLT6qkmtPmaS-10" target="xsbCnIxozLT6qkmtPmaS-1">
          <mxGeometry relative="1" as="geometry" />
        </mxCell>
        <mxCell id="xsbCnIxozLT6qkmtPmaS-10" value="&lt;p style=&quot;margin: 0px; font-variant-numeric: normal; font-variant-east-asian: normal; font-stretch: normal; font-size: 18px; line-height: normal; font-family: Menlo; text-align: start;&quot; class=&quot;p1&quot;&gt;&lt;font style=&quot;&quot; color=&quot;#18181c&quot;&gt;ScriptedFieldsApiParamsBuilder&lt;/font&gt;&lt;/p&gt;&lt;p style=&quot;margin: 0px; font-variant-numeric: normal; font-variant-east-asian: normal; font-stretch: normal; font-size: 18px; line-height: normal; font-family: Menlo; text-align: start;&quot; class=&quot;p1&quot;&gt;&lt;span style=&quot;&quot; class=&quot;s1&quot;&gt;&lt;font color=&quot;#18181c&quot;&gt;&amp;nbsp; &amp;nbsp;&lt;/font&gt;&lt;/span&gt;&lt;/p&gt;&lt;p style=&quot;margin: 0px; font-variant-numeric: normal; font-variant-east-asian: normal; font-stretch: normal; font-size: 18px; line-height: normal; font-family: Menlo; text-align: start;&quot; class=&quot;p1&quot;&gt;&lt;font color=&quot;#18181c&quot;&gt;&lt;span style=&quot;&quot; class=&quot;s1&quot;&gt;&amp;nbsp;&lt;/span&gt;&lt;span style=&quot;&quot; class=&quot;s2&quot;&gt;&lt;b&gt;let&lt;/b&gt;&lt;/span&gt;&lt;span style=&quot;&quot; class=&quot;s1&quot;&gt; &lt;/span&gt;&lt;span style=&quot;&quot; class=&quot;s3&quot;&gt;fields&lt;/span&gt;&lt;span style=&quot;&quot; class=&quot;s1&quot;&gt;: [&lt;/span&gt;UIIPFieldService&lt;span style=&quot;&quot; class=&quot;s1&quot;&gt;]&lt;/span&gt;&amp;nbsp;&lt;/font&gt;&lt;/p&gt;&lt;p style=&quot;margin: 0px; font-variant-numeric: normal; font-variant-east-asian: normal; font-stretch: normal; font-size: 18px; line-height: normal; font-family: Menlo; text-align: start;&quot; class=&quot;p1&quot;&gt;&lt;font color=&quot;#18181c&quot;&gt;&amp;nbsp;&amp;nbsp;&lt;br&gt;&lt;/font&gt;&lt;/p&gt;&lt;p style=&quot;margin: 0px; font-variant-numeric: normal; font-variant-east-asian: normal; font-stretch: normal; font-size: 18px; line-height: normal; font-family: Menlo; text-align: start;&quot; class=&quot;p1&quot;&gt;&lt;font color=&quot;#18181c&quot;&gt;-createParamsDict&lt;span style=&quot;&quot; class=&quot;s1&quot;&gt;() -&amp;gt; [&lt;/span&gt;&lt;span style=&quot;&quot; class=&quot;s2&quot;&gt;String&lt;/span&gt;&lt;span style=&quot;&quot; class=&quot;s1&quot;&gt;: &lt;/span&gt;&lt;span style=&quot;&quot; class=&quot;s3&quot;&gt;&lt;b&gt;Any&lt;/b&gt;&lt;/span&gt;&lt;span style=&quot;&quot; class=&quot;s1&quot;&gt;]&lt;/span&gt;&lt;/font&gt;&lt;br&gt;&lt;/p&gt;" style="rounded=0;whiteSpace=wrap;html=1;fillColor=#f8cecc;strokeColor=#b85450;" vertex="1" parent="xsbCnIxozLT6qkmtPmaS-21">
          <mxGeometry x="620" y="200" width="420" height="110" as="geometry" />
        </mxCell>
        <mxCell id="xsbCnIxozLT6qkmtPmaS-16" style="edgeStyle=orthogonalEdgeStyle;rounded=0;orthogonalLoop=1;jettySize=auto;html=1;entryX=1;entryY=0.5;entryDx=0;entryDy=0;dashed=1;fontColor=#18181C;" edge="1" parent="xsbCnIxozLT6qkmtPmaS-21" source="xsbCnIxozLT6qkmtPmaS-11" target="xsbCnIxozLT6qkmtPmaS-1">
          <mxGeometry relative="1" as="geometry" />
        </mxCell>
        <mxCell id="xsbCnIxozLT6qkmtPmaS-11" value="&lt;p style=&quot;margin: 0px; font-variant-numeric: normal; font-variant-east-asian: normal; font-stretch: normal; font-size: 18px; line-height: normal; font-family: Menlo; text-align: start;&quot; class=&quot;p1&quot;&gt;&lt;font style=&quot;&quot; color=&quot;#18181c&quot;&gt;ControlAggregationApiParamsBuilder&lt;/font&gt;&lt;/p&gt;&lt;p style=&quot;margin: 0px; font-variant-numeric: normal; font-variant-east-asian: normal; font-stretch: normal; font-size: 18px; line-height: normal; font-family: Menlo; text-align: start;&quot; class=&quot;p1&quot;&gt;&lt;span style=&quot;&quot; class=&quot;s1&quot;&gt;&lt;font color=&quot;#18181c&quot;&gt;&amp;nbsp; &amp;nbsp;&lt;/font&gt;&lt;/span&gt;&lt;/p&gt;&lt;p style=&quot;margin: 0px; font-variant-numeric: normal; font-variant-east-asian: normal; font-stretch: normal; font-size: 18px; line-height: normal; font-family: Menlo; text-align: start;&quot; class=&quot;p1&quot;&gt;&lt;font color=&quot;#18181c&quot;&gt;&lt;span style=&quot;&quot; class=&quot;s1&quot;&gt;&amp;nbsp;&lt;/span&gt;&lt;span style=&quot;&quot; class=&quot;s2&quot;&gt;&lt;b&gt;let&lt;/b&gt;&lt;/span&gt;&lt;span style=&quot;&quot; class=&quot;s1&quot;&gt; &lt;/span&gt;&lt;span style=&quot;&quot; class=&quot;s3&quot;&gt;control&lt;/span&gt;&lt;span style=&quot;&quot; class=&quot;s1&quot;&gt;: &lt;/span&gt;UIControlsParams&amp;nbsp;&amp;nbsp;&lt;br&gt;&lt;/font&gt;&lt;/p&gt;&lt;p style=&quot;margin: 0px; font-variant-numeric: normal; font-variant-east-asian: normal; font-stretch: normal; font-size: 18px; line-height: normal; font-family: Menlo; text-align: start;&quot; class=&quot;p1&quot;&gt;&lt;font color=&quot;#18181c&quot;&gt;&lt;br&gt;&lt;/font&gt;&lt;/p&gt;&lt;p style=&quot;margin: 0px; font-variant-numeric: normal; font-variant-east-asian: normal; font-stretch: normal; font-size: 18px; line-height: normal; font-family: Menlo; text-align: start;&quot; class=&quot;p1&quot;&gt;&lt;font color=&quot;#18181c&quot;&gt;-createParamsDict&lt;span style=&quot;&quot; class=&quot;s1&quot;&gt;() -&amp;gt; [&lt;/span&gt;&lt;span style=&quot;&quot; class=&quot;s2&quot;&gt;String&lt;/span&gt;&lt;span style=&quot;&quot; class=&quot;s1&quot;&gt;: &lt;/span&gt;&lt;span style=&quot;&quot; class=&quot;s3&quot;&gt;&lt;b&gt;Any&lt;/b&gt;&lt;/span&gt;&lt;span style=&quot;&quot; class=&quot;s1&quot;&gt;]&lt;/span&gt;&lt;/font&gt;&lt;br&gt;&lt;/p&gt;" style="rounded=0;whiteSpace=wrap;html=1;fillColor=#f8cecc;strokeColor=#b85450;" vertex="1" parent="xsbCnIxozLT6qkmtPmaS-21">
          <mxGeometry x="620" y="380" width="420" height="110" as="geometry" />
        </mxCell>
        <mxCell id="xsbCnIxozLT6qkmtPmaS-17" style="edgeStyle=orthogonalEdgeStyle;rounded=0;orthogonalLoop=1;jettySize=auto;html=1;entryX=1;entryY=0.5;entryDx=0;entryDy=0;dashed=1;fontColor=#18181C;" edge="1" parent="xsbCnIxozLT6qkmtPmaS-21" source="xsbCnIxozLT6qkmtPmaS-12" target="xsbCnIxozLT6qkmtPmaS-1">
          <mxGeometry relative="1" as="geometry" />
        </mxCell>
        <mxCell id="xsbCnIxozLT6qkmtPmaS-12" value="&lt;p style=&quot;margin: 0px; font-variant-numeric: normal; font-variant-east-asian: normal; font-stretch: normal; font-size: 18px; line-height: normal; font-family: Menlo; text-align: start;&quot; class=&quot;p1&quot;&gt;&lt;font style=&quot;&quot; color=&quot;#18181c&quot;&gt;OtherBucketAggregationApiParamsBuilder&lt;/font&gt;&lt;/p&gt;&lt;p style=&quot;margin: 0px; font-variant-numeric: normal; font-variant-east-asian: normal; font-stretch: normal; font-size: 18px; line-height: normal; font-family: Menlo; text-align: start;&quot; class=&quot;p1&quot;&gt;&lt;span style=&quot;&quot; class=&quot;s1&quot;&gt;&lt;font color=&quot;#18181c&quot;&gt;&amp;nbsp; &amp;nbsp;&lt;/font&gt;&lt;/span&gt;&lt;/p&gt;&lt;p style=&quot;margin: 0px; font-variant-numeric: normal; font-variant-east-asian: normal; font-stretch: normal; font-size: 18px; line-height: normal; font-family: Menlo; text-align: start;&quot; class=&quot;p1&quot;&gt;&lt;font color=&quot;#18181c&quot;&gt;&lt;span style=&quot;&quot; class=&quot;s1&quot;&gt;&amp;nbsp;&lt;/span&gt;&lt;span style=&quot;&quot; class=&quot;s1&quot;&gt;&lt;b&gt;let&lt;/b&gt;&lt;/span&gt;&lt;span style=&quot;&quot; class=&quot;s2&quot;&gt; &lt;/span&gt;&lt;span style=&quot;&quot; class=&quot;s3&quot;&gt;metricAggregation&lt;/span&gt;&lt;span style=&quot;&quot; class=&quot;s2&quot;&gt;: &lt;/span&gt;UIAggregationService&lt;/font&gt;&lt;/p&gt;&lt;p style=&quot;margin: 0px; font-variant-numeric: normal; font-variant-east-asian: normal; font-stretch: normal; font-size: 18px; line-height: normal; font-family: Menlo; text-align: start;&quot; class=&quot;p1&quot;&gt;&lt;font color=&quot;#18181c&quot;&gt;&lt;span style=&quot;&quot; class=&quot;s2&quot;&gt;&amp;nbsp;&lt;/span&gt;&lt;span style=&quot;&quot; class=&quot;s1&quot;&gt;&lt;b&gt;let&lt;/b&gt;&lt;/span&gt;&lt;span style=&quot;&quot; class=&quot;s2&quot;&gt; &lt;/span&gt;&lt;span style=&quot;&quot; class=&quot;s3&quot;&gt;bucketAggregations&lt;/span&gt;&lt;span style=&quot;&quot; class=&quot;s2&quot;&gt;: [&lt;/span&gt;UIAggregationService&lt;span style=&quot;&quot; class=&quot;s2&quot;&gt;]&lt;/span&gt;&amp;nbsp;&amp;nbsp;&lt;br&gt;&lt;/font&gt;&lt;/p&gt;&lt;p style=&quot;margin: 0px; font-variant-numeric: normal; font-variant-east-asian: normal; font-stretch: normal; font-size: 18px; line-height: normal; font-family: Menlo; text-align: start;&quot; class=&quot;p1&quot;&gt;&lt;font color=&quot;#18181c&quot;&gt;&lt;br&gt;&lt;/font&gt;&lt;/p&gt;&lt;p style=&quot;margin: 0px; font-variant-numeric: normal; font-variant-east-asian: normal; font-stretch: normal; font-size: 18px; line-height: normal; font-family: Menlo; text-align: start;&quot; class=&quot;p1&quot;&gt;&lt;font color=&quot;#18181c&quot;&gt;-createParamsDict&lt;span style=&quot;&quot; class=&quot;s1&quot;&gt;() -&amp;gt; [&lt;/span&gt;&lt;span style=&quot;&quot; class=&quot;s2&quot;&gt;String&lt;/span&gt;&lt;span style=&quot;&quot; class=&quot;s1&quot;&gt;: &lt;/span&gt;&lt;span style=&quot;&quot; class=&quot;s3&quot;&gt;&lt;b&gt;Any&lt;/b&gt;&lt;/span&gt;&lt;span style=&quot;&quot; class=&quot;s1&quot;&gt;]&lt;/span&gt;&lt;/font&gt;&lt;br&gt;&lt;/p&gt;" style="rounded=0;whiteSpace=wrap;html=1;fillColor=#f8cecc;strokeColor=#b85450;" vertex="1" parent="xsbCnIxozLT6qkmtPmaS-21">
          <mxGeometry x="620" y="550" width="550" height="160" as="geometry" />
        </mxCell>
        <mxCell id="xsbCnIxozLT6qkmtPmaS-31" value="" style="group" vertex="1" connectable="0" parent="WIyWlLk6GJQsqaUBKTNV-1">
          <mxGeometry x="-500" y="750" width="1080" height="680" as="geometry" />
        </mxCell>
        <mxCell id="xsbCnIxozLT6qkmtPmaS-30" value="" style="rounded=0;whiteSpace=wrap;html=1;labelBackgroundColor=none;fontColor=#18181C;fillColor=#F9F5EC;" vertex="1" parent="xsbCnIxozLT6qkmtPmaS-31">
          <mxGeometry width="1080" height="680" as="geometry" />
        </mxCell>
        <mxCell id="xsbCnIxozLT6qkmtPmaS-3" value="&lt;p style=&quot;margin: 0px; font-variant-numeric: normal; font-variant-east-asian: normal; font-stretch: normal; font-size: 18px; line-height: normal; font-family: Menlo; text-align: start;&quot; class=&quot;p1&quot;&gt;&lt;font color=&quot;#18181c&quot;&gt;&amp;lt;FilterApiParamsBuilder&lt;/font&gt;&lt;span style=&quot;color: rgb(24, 24, 28); background-color: initial;&quot;&gt;&amp;gt;&lt;/span&gt;&lt;/p&gt;&lt;p style=&quot;margin: 0px; font-variant-numeric: normal; font-variant-east-asian: normal; font-stretch: normal; font-size: 18px; line-height: normal; font-family: Menlo; text-align: start;&quot; class=&quot;p1&quot;&gt;&lt;font color=&quot;#18181c&quot;&gt;&lt;span style=&quot;&quot;&gt;&lt;/span&gt;&amp;nbsp; &amp;nbsp;&lt;/font&gt;&lt;/p&gt;&lt;p style=&quot;margin: 0px; font-variant-numeric: normal; font-variant-east-asian: normal; font-stretch: normal; font-size: 18px; line-height: normal; font-family: Menlo; text-align: start;&quot; class=&quot;p1&quot;&gt;&lt;font style=&quot;&quot; color=&quot;#18181c&quot;&gt;-createFilterDict&lt;span style=&quot;&quot; class=&quot;s1&quot;&gt;() -&amp;gt; [&lt;/span&gt;&lt;span style=&quot;&quot; class=&quot;s2&quot;&gt;String&lt;/span&gt;&lt;span style=&quot;&quot; class=&quot;s1&quot;&gt;: &lt;/span&gt;&lt;span style=&quot;&quot; class=&quot;s3&quot;&gt;&lt;b&gt;Any&lt;/b&gt;&lt;/span&gt;&lt;span style=&quot;&quot; class=&quot;s1&quot;&gt;]&lt;/span&gt;&lt;/font&gt;&lt;br&gt;&lt;/p&gt;" style="rounded=0;whiteSpace=wrap;html=1;fillColor=#fff2cc;strokeColor=#d6b656;" vertex="1" parent="xsbCnIxozLT6qkmtPmaS-31">
          <mxGeometry x="20" y="130" width="460" height="110" as="geometry" />
        </mxCell>
        <mxCell id="xsbCnIxozLT6qkmtPmaS-26" style="edgeStyle=orthogonalEdgeStyle;rounded=0;orthogonalLoop=1;jettySize=auto;html=1;entryX=1;entryY=0.5;entryDx=0;entryDy=0;dashed=1;fontColor=#18181C;" edge="1" parent="xsbCnIxozLT6qkmtPmaS-31" source="xsbCnIxozLT6qkmtPmaS-22" target="xsbCnIxozLT6qkmtPmaS-3">
          <mxGeometry relative="1" as="geometry" />
        </mxCell>
        <mxCell id="xsbCnIxozLT6qkmtPmaS-22" value="&lt;p style=&quot;margin: 0px; font-variant-numeric: normal; font-variant-east-asian: normal; font-stretch: normal; font-size: 18px; line-height: normal; font-family: Menlo; text-align: start;&quot; class=&quot;p1&quot;&gt;&lt;font style=&quot;&quot; color=&quot;#18181c&quot;&gt;TermsFilterApiParamsBuilder&lt;/font&gt;&lt;/p&gt;&lt;p style=&quot;margin: 0px; font-variant-numeric: normal; font-variant-east-asian: normal; font-stretch: normal; font-size: 18px; line-height: normal; font-family: Menlo; text-align: start;&quot; class=&quot;p1&quot;&gt;&lt;font color=&quot;#18181c&quot;&gt;&lt;span style=&quot;&quot;&gt;&lt;/span&gt;&amp;nbsp;&amp;nbsp;&lt;/font&gt;&lt;/p&gt;&lt;p style=&quot;margin: 0px; font-variant-numeric: normal; font-variant-east-asian: normal; font-stretch: normal; font-size: 18px; line-height: normal; font-family: Menlo; text-align: start;&quot; class=&quot;p1&quot;&gt;&lt;font color=&quot;#18181c&quot;&gt;&lt;span style=&quot;&quot; class=&quot;s1&quot;&gt;&lt;b&gt;let&lt;/b&gt;&lt;/span&gt; &lt;span style=&quot;&quot; class=&quot;s2&quot;&gt;filter&lt;/span&gt;: [&lt;span style=&quot;&quot; class=&quot;s3&quot;&gt;String&lt;/span&gt;: &lt;span style=&quot;&quot; class=&quot;s1&quot;&gt;&lt;b&gt;Any&lt;/b&gt;&lt;/span&gt;]&lt;/font&gt;&lt;/p&gt;&lt;p style=&quot;margin: 0px; font-variant-numeric: normal; font-variant-east-asian: normal; font-stretch: normal; font-size: 18px; line-height: normal; font-family: Menlo; text-align: start;&quot; class=&quot;p1&quot;&gt;&lt;font color=&quot;#18181c&quot;&gt;&lt;br&gt;&lt;/font&gt;&lt;/p&gt;&lt;p style=&quot;margin: 0px; font-variant-numeric: normal; font-variant-east-asian: normal; font-stretch: normal; font-size: 18px; line-height: normal; font-family: Menlo; text-align: start;&quot; class=&quot;p1&quot;&gt;&lt;font style=&quot;&quot; color=&quot;#18181c&quot;&gt;-createFilterDict&lt;span style=&quot;&quot; class=&quot;s1&quot;&gt;() -&amp;gt; [&lt;/span&gt;&lt;span style=&quot;&quot; class=&quot;s2&quot;&gt;String&lt;/span&gt;&lt;span style=&quot;&quot; class=&quot;s1&quot;&gt;: &lt;/span&gt;&lt;span style=&quot;&quot; class=&quot;s3&quot;&gt;&lt;b&gt;Any&lt;/b&gt;&lt;/span&gt;&lt;span style=&quot;&quot; class=&quot;s1&quot;&gt;]&lt;/span&gt;&lt;/font&gt;&lt;br&gt;&lt;/p&gt;" style="rounded=0;whiteSpace=wrap;html=1;fillColor=#d5e8d4;strokeColor=#82b366;" vertex="1" parent="xsbCnIxozLT6qkmtPmaS-31">
          <mxGeometry x="580" y="20" width="460" height="110" as="geometry" />
        </mxCell>
        <mxCell id="xsbCnIxozLT6qkmtPmaS-27" style="edgeStyle=orthogonalEdgeStyle;rounded=0;orthogonalLoop=1;jettySize=auto;html=1;entryX=1;entryY=0.5;entryDx=0;entryDy=0;dashed=1;fontColor=#18181C;" edge="1" parent="xsbCnIxozLT6qkmtPmaS-31" source="xsbCnIxozLT6qkmtPmaS-23" target="xsbCnIxozLT6qkmtPmaS-3">
          <mxGeometry relative="1" as="geometry" />
        </mxCell>
        <mxCell id="xsbCnIxozLT6qkmtPmaS-23" value="&lt;p style=&quot;margin: 0px; font-variant-numeric: normal; font-variant-east-asian: normal; font-stretch: normal; font-size: 18px; line-height: normal; font-family: Menlo; text-align: start;&quot; class=&quot;p1&quot;&gt;&lt;font style=&quot;&quot; color=&quot;#18181c&quot;&gt;SignificantTermsFilterApiParamsBuilder&lt;/font&gt;&lt;/p&gt;&lt;p style=&quot;margin: 0px; font-variant-numeric: normal; font-variant-east-asian: normal; font-stretch: normal; font-size: 18px; line-height: normal; font-family: Menlo; text-align: start;&quot; class=&quot;p1&quot;&gt;&lt;font color=&quot;#18181c&quot;&gt;&lt;span style=&quot;&quot;&gt;&lt;/span&gt;&amp;nbsp;&amp;nbsp;&lt;/font&gt;&lt;/p&gt;&lt;p style=&quot;margin: 0px; font-variant-numeric: normal; font-variant-east-asian: normal; font-stretch: normal; font-size: 18px; line-height: normal; font-family: Menlo; text-align: start;&quot; class=&quot;p1&quot;&gt;&lt;font color=&quot;#18181c&quot;&gt;&lt;span style=&quot;&quot; class=&quot;s1&quot;&gt;&lt;b&gt;let&lt;/b&gt;&lt;/span&gt; &lt;span style=&quot;&quot; class=&quot;s2&quot;&gt;filter&lt;/span&gt;: [&lt;span style=&quot;&quot; class=&quot;s3&quot;&gt;String&lt;/span&gt;: &lt;span style=&quot;&quot; class=&quot;s1&quot;&gt;&lt;b&gt;Any&lt;/b&gt;&lt;/span&gt;]&lt;/font&gt;&lt;/p&gt;&lt;p style=&quot;margin: 0px; font-variant-numeric: normal; font-variant-east-asian: normal; font-stretch: normal; font-size: 18px; line-height: normal; font-family: Menlo; text-align: start;&quot; class=&quot;p1&quot;&gt;&lt;font color=&quot;#18181c&quot;&gt;&lt;br&gt;&lt;/font&gt;&lt;/p&gt;&lt;p style=&quot;margin: 0px; font-variant-numeric: normal; font-variant-east-asian: normal; font-stretch: normal; font-size: 18px; line-height: normal; font-family: Menlo; text-align: start;&quot; class=&quot;p1&quot;&gt;&lt;font style=&quot;&quot; color=&quot;#18181c&quot;&gt;-createFilterDict&lt;span style=&quot;&quot; class=&quot;s1&quot;&gt;() -&amp;gt; [&lt;/span&gt;&lt;span style=&quot;&quot; class=&quot;s2&quot;&gt;String&lt;/span&gt;&lt;span style=&quot;&quot; class=&quot;s1&quot;&gt;: &lt;/span&gt;&lt;span style=&quot;&quot; class=&quot;s3&quot;&gt;&lt;b&gt;Any&lt;/b&gt;&lt;/span&gt;&lt;span style=&quot;&quot; class=&quot;s1&quot;&gt;]&lt;/span&gt;&lt;/font&gt;&lt;br&gt;&lt;/p&gt;" style="rounded=0;whiteSpace=wrap;html=1;fillColor=#d5e8d4;strokeColor=#82b366;" vertex="1" parent="xsbCnIxozLT6qkmtPmaS-31">
          <mxGeometry x="580" y="160" width="460" height="110" as="geometry" />
        </mxCell>
        <mxCell id="xsbCnIxozLT6qkmtPmaS-28" style="edgeStyle=orthogonalEdgeStyle;rounded=0;orthogonalLoop=1;jettySize=auto;html=1;entryX=1;entryY=0.5;entryDx=0;entryDy=0;dashed=1;fontColor=#18181C;" edge="1" parent="xsbCnIxozLT6qkmtPmaS-31" source="xsbCnIxozLT6qkmtPmaS-24" target="xsbCnIxozLT6qkmtPmaS-3">
          <mxGeometry relative="1" as="geometry" />
        </mxCell>
        <mxCell id="xsbCnIxozLT6qkmtPmaS-24" value="&lt;p style=&quot;margin: 0px; font-variant-numeric: normal; font-variant-east-asian: normal; font-stretch: normal; font-size: 18px; line-height: normal; font-family: Menlo; text-align: start;&quot; class=&quot;p1&quot;&gt;&lt;font color=&quot;#18181c&quot;&gt;TimeRangeFilterApiParamsBuilder&amp;nbsp;&amp;nbsp;&lt;br&gt;&lt;/font&gt;&lt;/p&gt;&lt;p style=&quot;margin: 0px; font-variant-numeric: normal; font-variant-east-asian: normal; font-stretch: normal; font-size: 18px; line-height: normal; font-family: Menlo; text-align: start;&quot; class=&quot;p1&quot;&gt;&lt;span style=&quot;&quot; class=&quot;s1&quot;&gt;&lt;font color=&quot;#18181c&quot;&gt;&amp;nbsp;&lt;/font&gt;&lt;/span&gt;&lt;/p&gt;&lt;p style=&quot;margin: 0px; font-variant-numeric: normal; font-variant-east-asian: normal; font-stretch: normal; font-size: 18px; line-height: normal; font-family: Menlo; text-align: start;&quot; class=&quot;p1&quot;&gt;&lt;font color=&quot;#18181c&quot;&gt;&lt;span style=&quot;&quot; class=&quot;s2&quot;&gt;&lt;b&gt;let&lt;/b&gt;&lt;/span&gt;&lt;span style=&quot;&quot; class=&quot;s1&quot;&gt; &lt;/span&gt;timeField&lt;span style=&quot;&quot; class=&quot;s1&quot;&gt;: &lt;/span&gt;&lt;span style=&quot;&quot; class=&quot;s3&quot;&gt;String&lt;/span&gt;&lt;/font&gt;&lt;/p&gt;&lt;p style=&quot;margin: 0px; font-variant-numeric: normal; font-variant-east-asian: normal; font-stretch: normal; font-size: 18px; line-height: normal; font-family: Menlo; text-align: start;&quot; class=&quot;p2&quot;&gt;&lt;font color=&quot;#18181c&quot;&gt;&lt;span style=&quot;&quot; class=&quot;s2&quot;&gt;&lt;b&gt;let&lt;/b&gt;&lt;/span&gt; &lt;span style=&quot;&quot; class=&quot;s4&quot;&gt;from&lt;/span&gt;: &lt;span style=&quot;&quot; class=&quot;s3&quot;&gt;String&lt;/span&gt;&lt;/font&gt;&lt;/p&gt;&lt;p style=&quot;margin: 0px; font-variant-numeric: normal; font-variant-east-asian: normal; font-stretch: normal; font-size: 18px; line-height: normal; font-family: Menlo; text-align: start;&quot; class=&quot;p2&quot;&gt;&lt;font color=&quot;#18181c&quot;&gt;&lt;span style=&quot;&quot; class=&quot;s2&quot;&gt;&lt;b&gt;let&lt;/b&gt;&lt;/span&gt; &lt;span style=&quot;&quot; class=&quot;s4&quot;&gt;to&lt;/span&gt;: &lt;span style=&quot;&quot; class=&quot;s3&quot;&gt;String&lt;/span&gt;&lt;/font&gt;&lt;/p&gt;&lt;p style=&quot;margin: 0px; font-variant-numeric: normal; font-variant-east-asian: normal; font-stretch: normal; font-size: 18px; line-height: normal; font-family: Menlo; text-align: start;&quot; class=&quot;p1&quot;&gt;&lt;font color=&quot;#18181c&quot;&gt;&lt;br&gt;&lt;/font&gt;&lt;/p&gt;&lt;p style=&quot;margin: 0px; font-variant-numeric: normal; font-variant-east-asian: normal; font-stretch: normal; font-size: 18px; line-height: normal; font-family: Menlo; text-align: start;&quot; class=&quot;p1&quot;&gt;&lt;font style=&quot;&quot; color=&quot;#18181c&quot;&gt;-createFilterDict&lt;span style=&quot;&quot; class=&quot;s1&quot;&gt;() -&amp;gt; [&lt;/span&gt;&lt;span style=&quot;&quot; class=&quot;s2&quot;&gt;String&lt;/span&gt;&lt;span style=&quot;&quot; class=&quot;s1&quot;&gt;: &lt;/span&gt;&lt;span style=&quot;&quot; class=&quot;s3&quot;&gt;&lt;b&gt;Any&lt;/b&gt;&lt;/span&gt;&lt;span style=&quot;&quot; class=&quot;s1&quot;&gt;]&lt;/span&gt;&lt;/font&gt;&lt;br&gt;&lt;/p&gt;" style="rounded=0;whiteSpace=wrap;html=1;fillColor=#d5e8d4;strokeColor=#82b366;" vertex="1" parent="xsbCnIxozLT6qkmtPmaS-31">
          <mxGeometry x="580" y="300" width="422" height="180" as="geometry" />
        </mxCell>
        <mxCell id="xsbCnIxozLT6qkmtPmaS-29" style="edgeStyle=orthogonalEdgeStyle;rounded=0;orthogonalLoop=1;jettySize=auto;html=1;entryX=1;entryY=0.5;entryDx=0;entryDy=0;dashed=1;fontColor=#18181C;" edge="1" parent="xsbCnIxozLT6qkmtPmaS-31" source="xsbCnIxozLT6qkmtPmaS-25" target="xsbCnIxozLT6qkmtPmaS-3">
          <mxGeometry relative="1" as="geometry" />
        </mxCell>
        <mxCell id="xsbCnIxozLT6qkmtPmaS-25" value="&lt;p style=&quot;margin: 0px; font-variant-numeric: normal; font-variant-east-asian: normal; font-stretch: normal; font-size: 18px; line-height: normal; font-family: Menlo; text-align: start;&quot; class=&quot;p1&quot;&gt;&lt;font color=&quot;#18181c&quot;&gt;SearchContentFilterApiParamsBuilder&amp;nbsp;&lt;br&gt;&lt;/font&gt;&lt;/p&gt;&lt;p style=&quot;margin: 0px; font-variant-numeric: normal; font-variant-east-asian: normal; font-stretch: normal; font-size: 18px; line-height: normal; font-family: Menlo; text-align: start;&quot; class=&quot;p1&quot;&gt;&lt;font color=&quot;#18181c&quot;&gt;&lt;br&gt;&lt;/font&gt;&lt;/p&gt;&lt;p style=&quot;margin: 0px; font-variant-numeric: normal; font-variant-east-asian: normal; font-stretch: normal; font-size: 18px; line-height: normal; font-family: Menlo; text-align: start;&quot; class=&quot;p1&quot;&gt;&lt;font color=&quot;#18181c&quot;&gt;&lt;span style=&quot;&quot; class=&quot;s2&quot;&gt;&lt;b&gt;let&lt;/b&gt;&lt;/span&gt;&lt;span style=&quot;&quot; class=&quot;s1&quot;&gt; &lt;/span&gt;searchTerm&lt;span style=&quot;&quot; class=&quot;s1&quot;&gt;: &lt;/span&gt;&lt;span style=&quot;&quot; class=&quot;s3&quot;&gt;String&lt;/span&gt;&lt;/font&gt;&lt;/p&gt;&lt;p style=&quot;margin: 0px; font-variant-numeric: normal; font-variant-east-asian: normal; font-stretch: normal; font-size: 18px; line-height: normal; font-family: Menlo; text-align: start;&quot; class=&quot;p1&quot;&gt;&lt;font color=&quot;#18181c&quot;&gt;&lt;br&gt;&lt;/font&gt;&lt;/p&gt;&lt;p style=&quot;margin: 0px; font-variant-numeric: normal; font-variant-east-asian: normal; font-stretch: normal; font-size: 18px; line-height: normal; font-family: Menlo; text-align: start;&quot; class=&quot;p1&quot;&gt;&lt;font color=&quot;#18181c&quot;&gt;-createFilterDict&lt;span style=&quot;&quot; class=&quot;s1&quot;&gt;() -&amp;gt; [&lt;/span&gt;&lt;span style=&quot;&quot; class=&quot;s2&quot;&gt;String&lt;/span&gt;&lt;span style=&quot;&quot; class=&quot;s1&quot;&gt;: &lt;/span&gt;&lt;span style=&quot;&quot; class=&quot;s3&quot;&gt;&lt;b&gt;Any&lt;/b&gt;&lt;/span&gt;&lt;span style=&quot;&quot; class=&quot;s1&quot;&gt;]&lt;/span&gt;&lt;/font&gt;&lt;br&gt;&lt;/p&gt;" style="rounded=0;whiteSpace=wrap;html=1;fillColor=#d5e8d4;strokeColor=#82b366;" vertex="1" parent="xsbCnIxozLT6qkmtPmaS-31">
          <mxGeometry x="580" y="510" width="422" height="140" as="geometry" />
        </mxCell>
        <mxCell id="xsbCnIxozLT6qkmtPmaS-36" value="" style="group" vertex="1" connectable="0" parent="WIyWlLk6GJQsqaUBKTNV-1">
          <mxGeometry x="-500" y="1570" width="1040" height="217.5" as="geometry" />
        </mxCell>
        <mxCell id="xsbCnIxozLT6qkmtPmaS-35" value="" style="rounded=0;whiteSpace=wrap;html=1;labelBackgroundColor=none;fontColor=#18181C;fillColor=#FBF0DA;container=0;" vertex="1" parent="xsbCnIxozLT6qkmtPmaS-36">
          <mxGeometry width="1040" height="217.5" as="geometry" />
        </mxCell>
        <mxCell id="xsbCnIxozLT6qkmtPmaS-32" value="&lt;p style=&quot;margin: 0px; font-variant-numeric: normal; font-variant-east-asian: normal; font-stretch: normal; font-size: 18px; line-height: normal; font-family: Menlo; text-align: start;&quot; class=&quot;p1&quot;&gt;&lt;br&gt;&lt;/p&gt;&lt;span style=&quot;font-family: Menlo; font-size: 18px; text-align: start;&quot;&gt;&amp;lt;SortApiParamsBuilderType&lt;/span&gt;&lt;span style=&quot;font-family: Menlo; font-size: 18px; text-align: start; background-color: initial;&quot; class=&quot;s1&quot;&gt;&lt;b&gt;&amp;gt;&lt;/b&gt;&lt;/span&gt;&lt;span style=&quot;font-family: Menlo; font-size: 18px; text-align: start; background-color: initial;&quot; class=&quot;s2&quot;&gt;&amp;nbsp;&lt;br&gt;&lt;br&gt;&lt;/span&gt;&lt;p style=&quot;margin: 0px; font-variant-numeric: normal; font-variant-east-asian: normal; font-stretch: normal; font-size: 18px; line-height: normal; font-family: Menlo; text-align: start;&quot; class=&quot;p2&quot;&gt;&lt;span class=&quot;s3&quot;&gt;&amp;nbsp;-createSortArray&lt;/span&gt;() -&amp;gt; [[&lt;span class=&quot;s4&quot;&gt;String&lt;/span&gt;:&amp;nbsp;&lt;span class=&quot;s1&quot;&gt;&lt;b&gt;Any&lt;/b&gt;&lt;/span&gt;]]&lt;br&gt;&lt;/p&gt;" style="rounded=0;whiteSpace=wrap;html=1;labelBackgroundColor=none;fontColor=#000000;fillColor=#F7D797;strokeColor=#BD7000;" vertex="1" parent="xsbCnIxozLT6qkmtPmaS-36">
          <mxGeometry x="20" y="37.5" width="460" height="110" as="geometry" />
        </mxCell>
        <mxCell id="xsbCnIxozLT6qkmtPmaS-34" style="edgeStyle=orthogonalEdgeStyle;rounded=0;orthogonalLoop=1;jettySize=auto;html=1;entryX=1;entryY=0.5;entryDx=0;entryDy=0;dashed=1;fontColor=#18181C;" edge="1" parent="xsbCnIxozLT6qkmtPmaS-36" source="xsbCnIxozLT6qkmtPmaS-33" target="xsbCnIxozLT6qkmtPmaS-32">
          <mxGeometry relative="1" as="geometry" />
        </mxCell>
        <mxCell id="xsbCnIxozLT6qkmtPmaS-33" value="&lt;p style=&quot;margin: 0px; font-variant-numeric: normal; font-variant-east-asian: normal; font-stretch: normal; font-size: 18px; line-height: normal; font-family: Menlo; text-align: start;&quot; class=&quot;p1&quot;&gt;&lt;font color=&quot;#18181c&quot;&gt;&lt;br&gt;&lt;/font&gt;&lt;/p&gt;&lt;span style=&quot;font-family: Menlo; font-size: 18px; text-align: start;&quot; class=&quot;s2&quot;&gt;&lt;font color=&quot;#18181c&quot;&gt;&lt;p style=&quot;margin: 0px; font-variant-numeric: normal; font-variant-east-asian: normal; font-stretch: normal; line-height: normal;&quot; class=&quot;p1&quot;&gt;SortApiParamsBuilder&lt;/p&gt;&lt;p style=&quot;margin: 0px; font-variant-numeric: normal; font-variant-east-asian: normal; font-stretch: normal; line-height: normal;&quot; class=&quot;p1&quot;&gt;&lt;span class=&quot;Apple-converted-space&quot;&gt;&lt;br&gt;&lt;/span&gt;&lt;/p&gt;&lt;p style=&quot;margin: 0px; font-variant-numeric: normal; font-variant-east-asian: normal; font-stretch: normal; line-height: normal;&quot; class=&quot;p1&quot;&gt;&lt;span style=&quot;&quot; class=&quot;s1&quot;&gt;&lt;b&gt;let&lt;/b&gt;&lt;/span&gt; &lt;span style=&quot;&quot; class=&quot;s2&quot;&gt;sort&lt;/span&gt;: [[&lt;span style=&quot;&quot; class=&quot;s3&quot;&gt;String&lt;/span&gt;]]&lt;/p&gt;&lt;br&gt;&lt;/font&gt;&lt;/span&gt;&lt;p style=&quot;margin: 0px; font-variant-numeric: normal; font-variant-east-asian: normal; font-stretch: normal; font-size: 18px; line-height: normal; font-family: Menlo; text-align: start;&quot; class=&quot;p2&quot;&gt;&lt;font color=&quot;#18181c&quot;&gt;&lt;span class=&quot;s3&quot;&gt;-createSortArray&lt;/span&gt;() -&amp;gt; [[&lt;span class=&quot;s4&quot;&gt;String&lt;/span&gt;:&amp;nbsp;&lt;span class=&quot;s1&quot;&gt;&lt;b&gt;Any&lt;/b&gt;&lt;/span&gt;]]&lt;/font&gt;&lt;br&gt;&lt;/p&gt;" style="rounded=0;whiteSpace=wrap;html=1;labelBackgroundColor=none;fontColor=#000000;fillColor=#F7D797;strokeColor=#BD7000;" vertex="1" parent="xsbCnIxozLT6qkmtPmaS-36">
          <mxGeometry x="580" y="22.5" width="430" height="140" as="geometry" />
        </mxCell>
      </root>
    </mxGraphModel>
  </diagram>
</mxfile>
